<svg width="590" height="283" viewBox="0 0 590 283" fill="none" xmlns="http://www.w3.org/2000/svg">
<path d="M0 215.351H590V216.044H0V215.351Z" fill="#425237"/>
<path d="M370.862 86.0425C371.002 85.9206 370.531 72.373 370.531 72.373C370.531 72.373 359.34 69.3978 356.222 66.9572C352.21 63.8153 348.394 54.1963 348.394 54.1963C348.394 54.1963 334.903 55.2583 333.397 55.4904C334.842 64.543 339.578 72.7434 346.698 78.5184C351.454 82.2924 357.07 84.8316 363.046 85.91C364.908 86.2478 369.45 87.2729 370.862 86.0425Z" fill="#425237"/>
<path d="M448.67 75.216L448.609 75.1409C448.361 75.3058 448.102 75.4556 447.835 75.5893C446.553 76.2406 445.167 76.6637 443.739 76.8397C441.009 77.1788 436.786 76.7528 432.178 72.7943C427.544 68.8134 422.06 67.83 418.275 67.7073C415.863 67.616 413.45 67.8488 411.1 68.3996L406.453 81.0716L406.486 81.1609L406.523 81.1511L406.537 81.1475L406.615 81.1278L406.657 81.1176C406.689 81.1101 406.726 81.1011 406.766 81.0921C412.638 79.7413 419.235 80.4069 424.459 83.5044C427.379 85.235 429.883 87.7063 433.051 88.928C436.674 90.2847 440.719 89.9013 444.022 87.8881L448.67 75.216Z" fill="#425237"/>
<path d="M564.62 88.2955L564.558 88.2203C564.31 88.3852 564.052 88.535 563.785 88.6687C562.502 89.32 561.116 89.7431 559.688 89.9191C556.958 90.2582 552.735 89.8322 548.128 85.8733C543.494 81.8928 538.009 80.9094 534.224 80.7867C531.814 80.6959 529.401 80.9286 527.052 81.4786C526.372 81.6587 525.061 86.9034 524.808 87.5941C524.007 89.7771 523.226 91.9715 522.401 94.1439C522.39 94.1412 522.462 94.2486 522.463 94.2379C528.927 93.4906 534.594 93.2129 540.459 96.6943C543.405 98.4435 545.99 100.864 549.21 102.036C552.15 103.106 558.377 101.807 558.377 101.807L564.62 88.2955Z" fill="#425237"/>
<path d="M356.206 69.5261L356.111 69.5052C356.018 69.7885 355.908 70.0659 355.782 70.336C355.178 71.6414 354.351 72.8319 353.339 73.8543C351.404 75.8112 347.825 78.0909 341.756 77.8345C335.652 77.5776 330.736 80.2012 327.688 82.4483C325.738 83.8696 323.987 85.5464 322.483 87.4338L326.679 100.262L326.76 100.312L326.782 100.282L326.792 100.269L326.84 100.207C330.41 95.6143 336.012 91.9473 341.804 91.0859C345.192 90.5824 348.714 91.0072 352.009 90.0691C355.592 89.0234 358.547 86.4782 360.112 83.0898C360.603 82.0121 356.206 69.5261 356.206 69.5261Z" fill="#425237"/>
<path d="M396.871 36.4259C397.171 36.6961 391.785 40.5473 391.273 40.8289C384.072 44.812 375.227 44.323 368.51 39.5702L368.222 39.3716C368.222 39.3716 360.3 50.2433 359.358 51.4434C366.775 56.6413 375.744 59.2467 384.807 58.274C393.718 57.2816 401.961 53.075 407.994 46.4417L396.871 36.4259Z" fill="#425237"/>
<path d="M325.176 36.0058C325.176 36.0058 310.379 27.7458 309.876 27.6817C308.892 27.5606 308.819 28.1411 308.201 29.0238C305.901 32.2856 303.092 35.1569 299.882 37.528C293.613 42.1824 285.132 45.5863 277.202 45.0702L277.156 45.0678L277.093 45.0631L277.074 45.1595L292.929 53.7845C294.8 53.8691 296.675 53.7681 298.526 53.4832C304.417 52.6553 310.024 50.4291 314.878 46.9909C318.993 44.033 322.512 40.3228 325.247 36.0562L325.176 36.0058Z" fill="#425237"/>
<path d="M406.696 11.1184C406.08 13.1948 405.923 15.1965 404.859 17.1923C403.797 19.1282 402.455 20.8963 400.875 22.4389C397.484 25.8247 392.759 28.1667 389.879 31.9934C389.85 32.0327 389.823 32.0681 389.795 32.1055C389.783 32.1224 389.77 32.1385 389.758 32.1554L390.917 35.944C391.354 37.3691 391.936 39.2693 392.373 40.6943L393.532 44.4829L393.614 44.5246C395.168 42.3459 397.495 40.6699 399.745 39.0474C401.483 37.7943 403.28 36.499 404.735 34.9694C407.364 32.207 410.5 27.933 410.519 23.2594L408.821 17.7103C408.228 15.7751 407.838 12.7055 406.696 11.1184Z" fill="#425237"/>
<path d="M473.262 117.101C473.237 117.097 473.212 117.094 473.186 117.093C473.086 122.75 468.911 127.799 464.677 131.144C462.047 133.223 459.105 134.965 456.901 137.49C456.651 137.732 456.477 138.041 456.4 138.38C456.383 138.654 456.426 138.93 456.526 139.186C457.319 141.744 458.107 144.302 458.889 146.863L460.049 150.652L460.131 150.693C461.685 148.514 464.011 146.838 466.261 145.216C467.999 143.963 469.796 142.668 471.252 141.138C473.88 138.375 477.017 134.101 477.036 129.428C475.779 125.321 474.461 121.226 473.262 117.101Z" fill="#425237"/>
<path d="M463.792 25.0185C463.787 24.9957 463.783 24.9733 463.779 24.9504C459.5 25.9338 453.981 23.9769 450.366 21.7723C447.497 20.0232 444.975 17.7623 442.557 15.4282C440.344 13.2924 438.178 11.0646 435.582 9.41575C432.913 7.72048 429.18 6.48188 426.001 7.19106C425.983 8.56772 425.894 9.95462 425.836 11.3336L425.77 12.9377L425.716 14.2427C425.713 14.2943 425.711 14.3454 425.709 14.3969L425.447 20.6867L425.472 20.7752C425.81 20.7093 426.152 20.671 426.495 20.6608C427.873 20.615 429.249 20.7834 430.575 21.1599C435.745 22.5672 439.953 26.451 442.571 29.4592C446.162 33.6879 450.992 36.6789 456.377 38.0083C458.419 38.5086 460.519 38.7258 462.619 38.6538C462.836 38.6499 463.053 38.6319 463.268 38.5999L463.559 31.5899C463.647 29.5517 464.152 27.0328 463.792 25.0185Z" fill="#425237"/>
<path d="M353.327 113.53C352.928 113.034 352.029 113.205 351.187 113.223C348.488 113.225 345.819 112.662 343.351 111.571C340.113 110.166 337.146 108.203 334.587 105.772C332.144 103.518 329.916 101.02 327.275 99.0013C324.279 96.7114 320.54 95.1573 316.722 95.3331C316.382 95.3437 316.043 95.3842 315.71 95.4543C315.523 99.955 315.336 104.456 315.149 108.957L315.174 109.046C315.511 108.98 315.853 108.942 316.197 108.931C317.574 108.885 318.95 109.054 320.276 109.431C325.446 110.838 329.654 114.722 332.272 117.73C335.863 121.959 340.694 124.95 346.08 126.279C348.122 126.779 350.222 126.996 352.322 126.924C352.734 126.906 352.963 126.878 352.97 126.877L353.264 119.806C353.339 118.013 353.422 116.223 353.527 114.431C353.575 114.117 353.503 113.795 353.327 113.53Z" fill="#425237"/>
<path d="M508.521 60.4483C508.521 60.4483 493.648 52.3739 492.669 51.8177C492.846 51.9177 486.916 58.5312 486.319 59.0885C483.963 61.3 481.356 63.2274 478.551 64.8312C473.309 67.8056 466.546 70.079 460.436 69.504L460.418 69.6004L476.273 78.2254C478.144 78.3102 480.019 78.2093 481.87 77.9241C487.761 77.0961 493.368 74.8699 498.222 71.4317C502.337 68.4739 505.856 64.7636 508.591 60.497L508.521 60.4483Z" fill="#425237"/>
<path d="M451.417 43.9882L435.562 35.3632C428.812 45.7247 416.569 53.3759 403.956 53.0718L403.774 53.0671H403.744C403.483 53.058 403.34 53.047 403.332 53.0462L403.314 53.1426L419.168 61.7676C420.619 62.5567 424.351 61.5576 425.909 61.2834C428.919 60.7494 431.853 59.8495 434.645 58.6037C441.55 55.479 447.4 50.4194 451.487 44.0377L451.417 43.9882Z" fill="#425237"/>
<path d="M287.312 103.434C286.773 102.49 283.706 102.77 282.472 102.594C271.234 100.946 261.303 94.4051 255.352 84.7303C255.315 87.8042 255.706 101.762 256.21 102.773C259.052 108.457 263.99 112.913 269.474 115.997C272.216 117.54 275.13 118.755 278.156 119.615C279.152 119.898 288.153 121.635 288.186 121.11L288.192 121.026C288.313 119.176 287.814 104.313 287.312 103.434Z" fill="#425237"/>
<path d="M359.964 21.0449C357.201 22.291 353.968 22.6057 350.839 22.9109C348.423 23.1469 345.925 23.3896 343.629 24.0575C339.481 25.2634 333.973 27.6588 331.29 32.2223L327.955 46.4413L328.055 46.4897C328.205 46.2352 328.366 45.9901 328.532 45.7494C331.267 41.7921 335.935 39.5446 340.476 38.4078C344.669 37.358 349.011 37.0827 353.285 36.4443C353.508 36.4109 353.731 36.3767 353.954 36.3413C354.666 36.2711 355.357 36.0605 355.987 35.7218C357.797 34.5988 358.111 29.262 358.575 27.2903C359.056 25.2376 359.538 23.1849 360.019 21.1322L359.964 21.0449Z" fill="#425237"/>
<path d="M266.452 27.3745C266.339 26.5982 266.184 25.8286 265.988 25.0692C265.974 25.0184 265.96 24.9677 265.946 24.9173C265.843 24.5449 265.737 24.2137 265.632 23.8994L251.738 19.3997L251.646 19.4488C252.659 22.306 252.705 25.5541 252.751 28.6953C252.786 31.1226 252.822 33.6316 253.297 35.9759C254.156 40.209 256.087 45.8958 260.413 48.9476L266.729 50.993C269.089 51.7572 271.764 53.0477 274.196 53.3459C273.712 52.5073 272.577 51.7726 271.898 50.967C271.073 49.9746 270.36 48.8936 269.774 47.744C268.635 45.4729 267.846 43.0429 267.432 40.5362C266.676 36.2595 267.094 31.6768 266.452 27.3745Z" fill="#425237"/>
<path d="M499.343 32.8434C499.013 30.7261 498.674 28.5368 497.97 26.5461C496.7 22.9511 494.312 18.2173 490.155 16.0835C488.219 15.744 479.643 13.871 477.529 13.9351C479.007 15.4797 480.818 16.4477 482.12 18.281C483.425 20.1754 484.431 22.2598 485.101 24.4607C486.53 28.949 486.475 34.2205 488.58 38.4335C488.611 38.4969 488.642 38.5595 488.673 38.6211L501.371 40.8466L501.445 40.7927C500.208 38.4185 499.768 35.5838 499.343 32.8434Z" fill="#425237"/>
<path d="M414.171 111.604C413.842 109.486 413.502 107.297 412.799 105.306C411.528 101.712 409.141 96.978 404.984 94.8438L392.285 92.6179L392.248 92.7088C394.777 94.0068 396.749 96.3986 398.136 98.8408C399.413 101.16 400.322 103.662 400.832 106.26C401.584 109.853 401.767 113.62 403.279 116.965C403.326 117.091 403.4 117.205 403.495 117.3C403.636 117.399 403.801 117.459 403.973 117.472C405.256 117.689 406.538 117.914 407.82 118.138L412.297 118.925L416.199 119.609L416.274 119.555C415.036 117.178 414.597 114.344 414.171 111.604Z" fill="#425237"/>
<path d="M130.083 214.182L117.126 246.308L139.555 258.476L152.588 222.832C154.642 217.217 152.27 210.944 147.015 208.093C143.994 206.454 140.418 206.182 137.185 207.345C133.951 208.508 131.368 210.995 130.083 214.182Z" fill="white"/>
<path fill-rule="evenodd" clip-rule="evenodd" d="M116.729 246.451L139.724 258.926L152.884 222.94C155.209 216.595 152.014 209.558 145.706 207.134C139.399 204.709 132.313 207.795 129.791 214.064L116.729 246.451ZM139.384 258.025L117.523 246.166L130.375 214.299C132.769 208.349 139.494 205.421 145.481 207.722C151.467 210.023 154.5 216.702 152.293 222.724L139.384 258.025Z" fill="#425237"/>
<path d="M122.405 231.69L116.882 245.084C116.535 245.924 116.878 246.89 117.677 247.323L156.774 268.534C157.221 268.775 157.749 268.815 158.227 268.642C158.704 268.469 159.085 268.101 159.274 267.629C162.542 259.488 159.19 250.191 151.48 246.007L145.173 242.585C136.72 242.276 128.842 238.22 123.679 231.519C123.517 231.308 123.255 231.201 122.992 231.236C122.73 231.272 122.505 231.445 122.405 231.69Z" fill="#425237"/>
<path d="M186.491 153.036C186.435 151.546 186.181 150.069 185.736 148.646C185.687 148.488 185.636 148.331 185.582 148.174C185.565 148.126 185.55 148.077 185.533 148.029C184.812 145.974 183.701 144.078 182.261 142.444L181.985 142.199C181.265 141.425 180.474 140.721 179.623 140.095L179.263 139.775L127.693 93.8208L105.209 113.573L149.601 157.358L121.285 219.827L154.505 237.85L184.488 161.665L184.491 161.659L184.672 161.2C185.058 160.432 185.386 159.637 185.652 158.82C185.707 158.651 185.759 158.482 185.809 158.313L185.958 157.936C185.958 157.933 185.958 157.926 185.962 157.923C186.376 156.329 186.555 154.682 186.491 153.036Z" fill="white"/>
<path fill-rule="evenodd" clip-rule="evenodd" d="M120.878 219.965L154.669 238.297L184.768 161.812L184.954 161.343C185.348 160.561 185.682 159.751 185.953 158.919C186.009 158.747 186.062 158.575 186.102 158.43L186.25 158.052L186.265 158.005C186.689 156.38 186.872 154.703 186.807 153.025C186.75 151.507 186.491 150.004 186.038 148.554C185.987 148.393 185.935 148.233 185.881 148.072L185.831 147.926C185.094 145.82 183.952 143.879 182.471 142.211L182.216 141.986C181.49 141.205 180.692 140.494 179.833 139.862L127.695 93.4019L104.747 113.561L149.224 157.429L120.878 219.965ZM154.344 237.406L121.693 219.692L149.889 157.492L149.98 157.291L105.673 113.589L127.693 94.244L179.055 140.013L179.438 140.352C180.281 140.973 181.064 141.671 181.777 142.437L182.026 142.655C183.442 144.258 184.534 146.12 185.24 148.139L185.286 148.278C185.339 148.43 185.389 148.585 185.437 148.742C185.873 150.139 186.123 151.588 186.179 153.051C186.241 154.653 186.068 156.257 185.667 157.81L185.507 158.228C185.458 158.394 185.408 158.56 185.354 158.726C185.089 159.536 184.763 160.326 184.379 161.088L184.215 161.512L184.203 161.532L154.344 237.406Z" fill="#425237"/>
<path d="M75.8325 234.643L69.507 268.702L93.9031 276.178L99.6064 238.657C100.505 232.746 96.9355 227.069 91.219 225.317C87.9338 224.31 84.3753 224.753 81.4371 226.534C78.4989 228.315 76.46 231.265 75.8325 234.643Z" fill="white"/>
<path fill-rule="evenodd" clip-rule="evenodd" d="M69.1471 268.921L94.1599 276.587L99.9191 238.704C100.929 232.029 96.4018 225.778 89.7454 224.654C83.0891 223.531 76.7611 227.951 75.5246 234.587L69.1986 268.646L69.1471 268.921ZM93.6473 275.771L69.8679 268.484L76.1424 234.701C77.3183 228.404 83.3238 224.212 89.6402 225.278C95.9565 226.345 100.253 232.276 99.2963 238.61L93.6473 275.771Z" fill="#425237"/>
<path d="M71.8776 253.358L69.1215 267.581C68.9487 268.473 69.4766 269.351 70.3452 269.618L112.874 282.651C113.36 282.799 113.885 282.732 114.319 282.468C114.753 282.204 115.053 281.768 115.145 281.269C116.732 272.641 111.603 264.193 103.216 261.623L96.3559 259.521C88.0087 260.895 79.4831 258.482 73.0938 252.938C72.8933 252.764 72.6153 252.71 72.3645 252.797C72.1137 252.883 71.9281 253.097 71.8776 253.358Z" fill="#425237"/>
<path d="M117.068 171.861V171.866C114.585 180.06 106.253 184.999 97.8732 183.244C89.4932 181.49 83.8423 173.624 84.8544 165.122V165.119C84.9938 163.943 85.2599 162.786 85.6481 161.667V161.661C88.3459 153.877 96.3665 149.27 104.45 150.862C112.533 152.454 118.207 159.758 117.752 167.984C117.752 167.987 117.752 167.994 117.752 167.997C117.679 169.307 117.45 170.605 117.068 171.861Z" fill="#425237"/>
<path d="M101.503 91.2169L85.3374 161.56L84.5283 165.081V165.084L66.9675 241.506L103.105 252.58L117.378 171.961V171.954L118.074 168.015C118.074 168.012 118.074 168.005 118.074 168.002L131.447 92.5114L101.503 91.2169Z" fill="white"/>
<path fill-rule="evenodd" clip-rule="evenodd" d="M66.5945 241.721L103.351 252.985L117.68 172.042L118.379 168.094L118.39 168.046V168.03L131.821 92.2124L101.255 90.8912L66.6602 241.435L66.5945 241.721ZM102.855 252.175L67.3391 241.291L101.751 91.5426L131.077 92.8103L117.77 167.921L117.759 167.952V167.988L102.855 252.175Z" fill="#425237"/>
<path d="M199.662 106.834L189.861 105.017L167.982 78.6071L167.974 78.6145C163.643 73.7599 156.248 73.2021 151.238 77.3521C146.229 81.5021 145.401 88.8721 149.365 94.03L149.357 94.0371L172.03 121.406L172.042 121.396C175.53 125.604 181.408 126.948 186.378 124.676C191.349 122.403 194.178 117.079 193.278 111.688L198.581 112.671C200.192 112.969 201.741 111.905 202.04 110.294C202.183 109.52 202.013 108.72 201.568 108.071C201.122 107.422 200.436 106.977 199.662 106.834Z" fill="white"/>
<path fill-rule="evenodd" clip-rule="evenodd" d="M179.431 125.937C180.074 126.038 180.724 126.088 181.376 126.089L181.375 126.087C184.94 126.077 188.329 124.536 190.679 121.854C193.028 119.173 194.112 115.61 193.653 112.075L198.523 112.98C199.681 113.205 200.87 112.791 201.639 111.896C202.408 111.001 202.637 109.763 202.24 108.652C201.843 107.541 200.88 106.729 199.719 106.524L190.029 104.728L168.224 78.4064L168.016 78.1731L168.005 78.1826C163.522 73.3978 156.09 72.9278 151.04 77.1098C145.99 81.2918 145.066 88.6815 148.932 93.9777L148.911 93.9946L171.787 121.607L172 121.838L172.003 121.836C173.919 124.034 176.549 125.486 179.431 125.937ZM172.285 121.195L172.071 120.963L149.799 94.0807L149.613 93.8384C145.759 88.8144 146.567 81.6417 151.444 77.6019C156.32 73.5621 163.518 74.1019 167.737 78.8237L167.842 78.9323L189.617 105.218L189.69 105.306L199.604 107.143C200.545 107.306 201.327 107.963 201.649 108.862C201.972 109.762 201.786 110.765 201.162 111.49C200.539 112.214 199.574 112.547 198.636 112.361L192.894 111.296L192.967 111.739C193.843 116.99 191.089 122.175 186.248 124.388C181.406 126.602 175.682 125.293 172.285 121.195Z" fill="#425237"/>
<path d="M150.683 50.2281C150.645 50.1656 150.611 50.1019 150.573 50.0397C150.553 50.0082 150.534 49.9787 150.513 49.9477L150.337 49.6578L150.327 49.6637C146.711 44.2471 139.453 42.6688 133.914 46.094C128.374 49.5192 126.543 56.7169 129.773 62.3727L129.764 62.3786L148.454 92.6074L166.452 76.2137L150.683 50.2281Z" fill="white"/>
<path fill-rule="evenodd" clip-rule="evenodd" d="M129.331 62.2755L148.386 93.0939L166.856 76.2722L150.953 50.0676L150.91 49.994C150.903 49.9823 150.897 49.9704 150.89 49.9584C150.874 49.9304 150.858 49.9022 150.841 49.876L150.432 49.2306L150.418 49.2396C146.636 43.8832 139.338 42.3952 133.761 45.8432C128.183 49.2912 126.253 56.4842 129.354 62.2617L129.331 62.2755ZM148.523 92.1185L130.197 62.4792L130.048 62.2153C126.926 56.7091 128.714 49.7192 134.099 46.3902C139.483 43.0612 146.535 44.5844 150.066 49.8387L150.305 50.2053C150.316 50.223 150.326 50.2407 150.337 50.2585C150.346 50.2739 150.355 50.2893 150.364 50.3048L166.049 76.1542L148.523 92.1185Z" fill="#425237"/>
<path d="M150.745 58.4947L150.747 58.4868C150.747 58.4475 150.747 58.4081 150.747 58.3688L150.708 54.3521C150.681 51.6737 149.591 49.1157 147.678 47.2409C145.765 45.366 143.186 44.328 140.507 44.3551L99.8116 44.7646C94.2343 44.8208 89.7585 49.3876 89.8146 54.9649L89.8539 58.982C89.8685 60.6185 90.2825 62.2266 91.0599 63.6666L98.8951 102.541L137.463 102.04L149.038 64.0922C150.15 62.4369 150.744 60.4884 150.745 58.4947Z" fill="#425237"/>
<path d="M115.341 38.0067L126.504 36.4663L127.696 45.1031C127.9 46.5834 127.508 48.0842 126.606 49.2753C125.703 50.4665 124.365 51.2503 122.884 51.4545C119.802 51.8799 116.958 49.7259 116.533 46.6435L115.341 38.0067Z" fill="white"/>
<path fill-rule="evenodd" clip-rule="evenodd" d="M116.221 46.6865C116.63 49.6266 119.142 51.8167 122.11 51.8226C122.383 51.8225 122.657 51.8037 122.927 51.7664C126.182 51.3166 128.455 48.3144 128.007 45.0601L126.772 36.1113L114.986 37.7382L116.221 46.6865ZM116.844 46.6004L115.695 38.2755L126.234 36.8201L127.383 45.145C127.643 47.0276 126.879 48.9059 125.379 50.0724C123.878 51.2388 121.869 51.5162 120.109 50.8C118.349 50.0839 117.104 48.483 116.844 46.6004Z" fill="#425237"/>
<path d="M117.212 10.3491C123.854 9.43252 129.981 14.0738 130.898 20.7158L131.894 27.9378C132.335 31.1275 131.49 34.3615 129.546 36.9284C127.602 39.4952 124.718 41.1846 121.528 41.6248C118.338 42.0649 115.104 41.2199 112.537 39.2755C109.971 37.3311 108.282 34.4467 107.842 31.2569L106.845 24.0349C105.929 17.393 110.57 11.2656 117.212 10.3491Z" fill="white"/>
<path fill-rule="evenodd" clip-rule="evenodd" d="M107.531 31.3012C108.382 37.4531 113.632 42.0397 119.843 42.0557C120.421 42.056 120.999 42.0166 121.572 41.9377C128.383 40.9903 133.141 34.7082 132.208 27.8957L131.211 20.6725C130.27 13.8582 123.984 9.09639 117.17 10.0368C110.355 10.9772 105.593 17.2636 106.534 24.078L107.531 31.3012ZM131.583 27.9819C132.468 34.4497 127.951 40.4133 121.485 41.3132H121.486C121.486 41.3132 121.485 41.3132 121.485 41.3132C118.379 41.742 115.229 40.919 112.729 39.0253C110.228 37.1315 108.583 34.3221 108.154 31.2151L107.157 23.9919C106.58 19.8067 108.279 15.6313 111.615 13.0385C114.95 10.4457 119.416 9.82941 123.329 11.4219C127.243 13.0143 130.009 16.5735 130.587 20.7587L131.583 27.9819Z" fill="#425237"/>
<path d="M131.622 4.91336C129.979 0.880147 125.378 -1.05801 121.345 0.584333L110.468 5.01405C107.181 6.35327 105.193 9.72344 105.612 13.2481L105.122 13.4664C99.834 15.7854 97.4273 21.9516 99.746 27.2394L102.224 32.8947C103.036 34.749 104.553 36.2045 106.439 36.9407C108.324 37.6768 110.426 37.6333 112.28 36.8198C114.872 35.6828 116.051 32.66 114.915 30.0678L113.423 24.322L115.021 24.1438C117.156 23.9049 118.694 21.9806 118.456 19.8451L118.343 18.8338L127.291 15.19C129.228 14.4017 130.773 12.876 131.585 10.9487C132.397 9.02139 132.41 6.85038 131.622 4.91336Z" fill="#425237"/>
<path d="M117.305 24.6784L117.763 27.9917C117.944 29.2986 117.031 30.5046 115.724 30.6853C114.417 30.8659 113.211 29.9529 113.03 28.646L112.572 25.3327C112.391 24.0258 113.304 22.8198 114.611 22.6392C115.918 22.4585 117.124 23.3715 117.305 24.6784Z" fill="white"/>
<path fill-rule="evenodd" clip-rule="evenodd" d="M112.719 28.6857C112.905 30.021 114.046 31.0158 115.394 31.019L115.394 31.0193C116.175 31.0186 116.918 30.6803 117.431 30.0916C117.945 29.5029 118.179 28.721 118.074 27.947L117.616 24.6344C117.397 23.1703 116.04 22.1553 114.574 22.3577C113.107 22.5602 112.077 23.9047 112.262 25.3734L112.719 28.6857ZM115.674 30.3394C114.552 30.4942 113.513 29.7193 113.342 28.5994L113.342 28.5998L112.885 25.2876C112.729 24.1535 113.521 23.1072 114.655 22.9506C115.789 22.794 116.835 23.5863 116.992 24.7204L117.449 28.033C117.587 29.1576 116.797 30.1846 115.674 30.3394Z" fill="#425237"/>
<path d="M260.753 97.08L228.901 100.62L198.411 104.009C184.553 105.512 172.092 95.5162 170.554 81.6619C169.015 67.8076 178.979 55.3214 192.829 53.7476L223.732 50.3138L255.584 46.7781L253.332 24.8647L221.48 28.4047L190.398 31.8566C164.428 34.7409 145.713 58.132 148.597 84.1021C151.482 110.072 174.873 128.787 200.843 125.903L231.152 122.535L263.004 118.995L260.753 97.08Z" fill="#425237"/>
<path fill-rule="evenodd" clip-rule="evenodd" d="M148.065 81.4953C149.454 106.732 170.314 126.489 195.589 126.506C197.356 126.505 199.121 126.407 200.877 126.211L263.351 119.271L261.034 96.7331L198.376 103.695C184.674 105.21 172.336 95.3342 170.814 81.6325C169.293 67.9308 179.163 55.5882 192.864 54.0596L255.927 47.0544L253.611 24.5164L190.363 31.5421C165.243 34.332 146.677 56.2586 148.065 81.4953ZM190.433 32.1674L253.052 25.2117L255.24 46.4993L192.795 53.4341C178.781 55.0371 168.704 67.6742 170.261 81.6935C171.818 95.7128 184.422 105.831 198.447 104.32L260.473 97.4277L262.66 118.715L200.809 125.587C184.121 127.441 167.712 120.25 157.763 106.725C147.814 93.1997 145.836 75.394 152.575 60.0152C159.314 44.6363 173.745 34.0208 190.433 32.1674Z" fill="#425237"/>
<path fill-rule="evenodd" clip-rule="evenodd" d="M223.732 50.313L255.584 46.7774L253.333 24.8644L221.481 28.4044L223.732 50.313ZM228.901 100.62L260.754 97.08L263.005 118.993L231.153 122.533L228.901 100.62Z" fill="white"/>
<path fill-rule="evenodd" clip-rule="evenodd" d="M223.452 50.6607L221.136 28.1227L253.613 24.5143L255.929 47.0523L223.452 50.6607ZM228.556 100.342L230.872 122.88L263.35 119.272L261.033 96.7338L228.556 100.342ZM231.433 122.184L229.246 100.897L260.473 97.4276L262.66 118.715L231.433 122.184ZM224.013 49.9653L221.826 28.6813L253.052 25.2117L255.24 46.4993L224.013 49.9653Z" fill="#425237"/>
<path d="M177.472 127.179L177.056 126.956C176.418 126.612 175.943 126.03 175.734 125.336C175.526 124.642 175.602 123.894 175.945 123.256L180.362 115.046C181.077 113.718 182.733 113.22 184.062 113.935L184.478 114.159C185.806 114.873 186.303 116.529 185.59 117.857L181.172 126.068C180.457 127.396 178.8 127.894 177.472 127.179Z" fill="#425237"/>
<path fill-rule="evenodd" clip-rule="evenodd" d="M177.323 127.456C177.764 127.694 178.258 127.819 178.76 127.819C179.883 127.821 180.916 127.205 181.448 126.217L185.866 118.006C186.661 116.524 186.107 114.679 184.627 113.88L184.211 113.656C183.499 113.273 182.665 113.189 181.891 113.421C181.117 113.654 180.468 114.184 180.085 114.896L175.668 123.106C174.872 124.588 175.426 126.434 176.907 127.232L177.323 127.456ZM182.074 114.024C182.3 113.956 182.535 113.921 182.772 113.921C183.17 113.922 183.562 114.021 183.912 114.21L184.328 114.434C185.503 115.068 185.942 116.532 185.312 117.708L180.896 125.918C180.262 127.092 178.798 127.532 177.623 126.902L177.206 126.678C176.032 126.044 175.592 124.58 176.223 123.404L180.641 115.194C180.943 114.628 181.459 114.207 182.074 114.024ZM182.772 113.921C182.772 113.921 182.772 113.921 182.772 113.921H182.771C182.771 113.921 182.771 113.921 182.772 113.921Z" fill="#425237"/>
<path d="M172.152 123.049L171.492 122.626C170.917 122.257 170.511 121.675 170.366 121.007C170.22 120.34 170.345 119.641 170.714 119.066L174.951 112.459C175.72 111.261 177.314 110.912 178.511 111.681L179.171 112.104C180.369 112.872 180.718 114.466 179.949 115.664L175.712 122.271C174.944 123.469 173.35 123.818 172.152 123.049Z" fill="#425237"/>
<path fill-rule="evenodd" clip-rule="evenodd" d="M171.982 123.314C172.445 123.613 172.985 123.772 173.536 123.772C173.746 123.772 173.955 123.749 174.16 123.704C174.91 123.542 175.563 123.087 175.975 122.441L180.212 115.833C180.626 115.187 180.766 114.404 180.603 113.655C180.439 112.906 179.984 112.253 179.339 111.839L178.678 111.416C178.033 111.002 177.25 110.861 176.501 111.025C175.752 111.189 175.099 111.644 174.685 112.289L170.448 118.897C169.589 120.241 169.98 122.028 171.322 122.891L171.982 123.314ZM176.636 111.64C176.796 111.605 176.959 111.588 177.123 111.588L177.123 111.589C177.555 111.589 177.977 111.713 178.34 111.946L179 112.369C180.051 113.044 180.356 114.442 179.682 115.494L175.446 122.102C174.772 123.153 173.373 123.458 172.322 122.785L171.662 122.362C170.612 121.687 170.306 120.289 170.979 119.237L175.215 112.629C175.538 112.123 176.049 111.767 176.636 111.64Z" fill="#425237"/>
<path d="M188.673 116.515L189.28 116.744C189.936 116.991 190.467 117.489 190.756 118.128C191.045 118.767 191.069 119.494 190.821 120.15L187.779 128.221C187.264 129.587 185.739 130.277 184.373 129.762L183.766 129.533C182.4 129.018 181.71 127.493 182.225 126.127L185.267 118.056C185.782 116.69 187.306 116 188.673 116.515Z" fill="#425237"/>
<path fill-rule="evenodd" clip-rule="evenodd" d="M184.262 130.056C184.594 130.182 184.947 130.246 185.302 130.246C186.534 130.246 187.637 129.484 188.074 128.331L191.115 120.261C191.392 119.527 191.366 118.713 191.043 117.998C190.719 117.283 190.125 116.726 189.391 116.449L188.783 116.221C187.255 115.644 185.548 116.416 184.972 117.945L181.93 126.016C181.354 127.544 182.126 129.251 183.655 129.827L184.262 130.056ZM185.563 118.167C185.905 117.261 186.772 116.661 187.741 116.659C188.022 116.659 188.3 116.71 188.563 116.81L189.17 117.038C189.748 117.256 190.216 117.694 190.471 118.257C190.725 118.82 190.746 119.461 190.528 120.039L187.486 128.109C187.032 129.312 185.689 129.92 184.485 129.467L183.878 129.239C182.675 128.785 182.067 127.441 182.521 126.238L185.563 118.167ZM187.741 116.659C187.741 116.659 187.741 116.659 187.741 116.659H187.74C187.74 116.659 187.74 116.659 187.741 116.659Z" fill="#425237"/>
<path d="M173.834 81.7809L173.718 81.7738C173.709 81.7213 173.699 81.6689 173.69 81.6165C175.138 81.1275 175.977 79.6187 175.63 78.1304C175.283 76.642 173.862 75.6608 172.347 75.8632L171.005 76.0433C170.816 75.8219 170.615 75.6067 170.407 75.3967L172.895 74.3425C174.405 73.7033 175.111 71.9613 174.472 70.4515C173.832 68.9417 172.09 68.236 170.581 68.8752L163.406 71.9137C162.395 71.7809 161.371 71.7759 160.358 71.8988L125.461 74.5774V74.5888C119.001 75.3281 114.283 81.0434 114.781 87.526C115.278 94.0086 120.813 98.9372 127.31 98.6824V98.6938L162.745 95.9735V95.957C165.108 95.7777 167.366 94.9054 169.235 93.4491L172.08 93.905C173.669 94.1612 175.173 93.1024 175.468 91.5194C175.762 89.9364 174.74 88.4075 173.165 88.0746C173.211 87.9479 173.258 87.8209 173.3 87.6931L173.459 87.7029C175.095 87.8047 176.503 86.5621 176.606 84.9267C176.707 83.2932 175.467 81.886 173.834 81.7809Z" fill="white"/>
<path fill-rule="evenodd" clip-rule="evenodd" d="M127.019 99.0078V99.0341L162.777 96.291L163.088 96.2517V96.2477C165.355 96.0196 167.514 95.1674 169.327 93.7859L172.037 94.2185C172.896 94.3563 173.776 94.147 174.481 93.6365C175.186 93.1261 175.66 92.3563 175.797 91.4967C175.58 91.2968 175.38 91.0824 175.198 90.8556C175.162 90.0626 174.769 89.3343 174.15 88.8648C174.006 88.3886 173.923 87.8927 173.904 87.3885C174.697 87.3182 175.426 86.8937 175.876 86.2197C176.405 85.4272 176.469 84.4115 176.043 83.559C175.937 83.3477 175.806 83.1544 175.653 82.9824C175.799 82.8385 175.953 82.7015 176.115 82.5723C175.313 82.2232 174.611 81.7266 174.032 81.1248C175.049 80.5593 175.598 79.3744 175.324 78.2037C175.014 76.8731 173.743 75.996 172.389 76.1771L172.234 76.1979C172.248 75.9836 172.273 75.7683 172.31 75.5529L171.136 75.7102C171.077 75.6438 171.017 75.5769 170.955 75.5096L173.024 74.6333C174.693 73.9263 175.473 71.9999 174.766 70.3306C174.059 68.6613 172.133 67.8812 170.463 68.5881L163.367 71.5932C162.362 71.4678 161.345 71.4659 160.339 71.5873L125.441 74.2659L125.131 74.3013V74.3159C118.638 75.2157 113.965 81.0128 114.465 87.5496C114.965 94.0863 120.464 99.1057 127.019 99.0078ZM172.234 76.1979L170.877 76.3797L170.767 76.2503C170.59 76.0438 170.394 75.8318 170.184 75.6209L169.857 75.2909L172.773 74.0555C173.655 73.6914 174.273 72.8823 174.393 71.9363C174.512 70.9902 174.115 70.0526 173.352 69.4804C172.59 68.9082 171.578 68.7893 170.704 69.1691L163.451 72.2406L163.366 72.2296C162.381 72.1005 161.383 72.0956 160.397 72.2151L125.646 74.8811L125.497 74.9039C119.203 75.6207 114.604 81.1887 115.088 87.505C115.573 93.8213 120.968 98.6222 127.298 98.3701L127.603 98.358L162.413 95.686L162.723 95.6467C165.024 95.4732 167.223 94.6233 169.043 93.2037L169.152 93.1195L172.131 93.5974C173.551 93.824 174.892 92.8777 175.156 91.4643C175.194 91.2593 175.207 91.0554 175.198 90.8556C174.722 90.2633 174.367 89.5866 174.15 88.8648C173.849 88.6366 173.494 88.4695 173.101 88.3858L172.747 88.3106L172.872 87.9696C172.88 87.9481 172.887 87.9272 172.895 87.9069C172.937 87.7921 172.972 87.6951 173.004 87.5975L173.08 87.367L173.482 87.3922C173.624 87.4023 173.765 87.4009 173.904 87.3885C173.899 87.2467 173.899 87.1043 173.904 86.9614C173.958 85.4529 174.589 84.0312 175.653 82.9824C175.189 82.4607 174.53 82.1351 173.814 82.096L173.452 82.0732L173.329 81.4077L173.589 81.3203C173.745 81.2678 173.893 81.2021 174.032 81.1248C172.785 79.8293 172.11 78.0462 172.234 76.1979Z" fill="#425237"/>
<path d="M109.923 48.5666L109.914 48.5741C105.418 43.8746 98.0095 43.5743 93.1474 47.8944C88.2854 52.2145 87.7122 59.6069 91.8501 64.6249L91.8419 64.6323L115.449 91.2L133.118 74.0593L109.923 48.5666Z" fill="white"/>
<path fill-rule="evenodd" clip-rule="evenodd" d="M91.3993 64.6091L115.432 91.655L133.555 74.0734L110.154 48.3553L109.934 48.1303L109.926 48.1378C105.277 43.5157 97.8352 43.3079 92.9361 47.6635C88.0371 52.019 87.3723 59.4343 91.4186 64.5917L91.3993 64.6091ZM115.466 90.7457L92.2841 64.6563H92.2849L92.0941 64.4247C88.0638 59.5375 88.622 52.3376 93.3574 48.13C98.0928 43.9223 105.308 44.2149 109.688 48.792L109.9 49.0139L109.902 49.0115L132.681 74.046L115.466 90.7457Z" fill="#425237"/>
</svg>
