<svg width="18" height="18" viewBox="0 0 18 18" fill="none" xmlns="http://www.w3.org/2000/svg">
<g clip-path="url(#clip0)">
<path d="M17.5965 14.2253L14.8166 11.4452C14.2629 10.8937 13.346 10.9105 12.7731 11.4837L11.3726 12.8838C11.2841 12.8351 11.1925 12.7841 11.0962 12.7301C10.2118 12.2401 9.00139 11.5684 7.72765 10.2938C6.45014 9.0164 5.77788 7.8041 5.28635 6.91914C5.23448 6.82538 5.18478 6.73499 5.13571 6.64915L6.07564 5.71061L6.53774 5.24794C7.1116 4.67393 7.12742 3.75727 6.57503 3.2042L3.79521 0.423766C3.24282 -0.128526 2.32549 -0.111771 1.75163 0.46224L0.968183 1.25019L0.989592 1.27144C0.726892 1.60664 0.507371 1.99325 0.344011 2.41015C0.193423 2.807 0.0996683 3.18569 0.0567985 3.56516C-0.310258 6.60814 1.0803 9.3892 4.85408 13.163C10.0706 18.3792 14.2744 17.9851 14.4558 17.9659C14.8508 17.9187 15.2293 17.8243 15.614 17.6749C16.0273 17.5135 16.4136 17.2943 16.7486 17.0321L16.7657 17.0473L17.5594 16.2701C18.1321 15.6962 18.1486 14.7793 17.5965 14.2253Z" fill="#425237"/>
</g>
<defs>
<clipPath id="clip0">
<rect width="18" height="18" fill="white"/>
</clipPath>
</defs>
</svg>
